<svg id="bold" height="512" viewBox="0 0 24 24" width="512" xmlns="http://www.w3.org/2000/svg"><path d="m16.25 24h-.5c-.965 0-1.75-.785-1.75-1.75v-3.5c0-.965.785-1.75 1.75-1.75h1.5c.414 0 .75.336.75.75s-.336.75-.75.75h-1.5c-.138 0-.25.112-.25.25v.75h.75c.965 0 1.75.785 1.75 1.75v1c0 .965-.785 1.75-1.75 1.75zm-.75-3v1.25c0 .138.112.25.25.25h.5c.138 0 .25-.112.25-.25v-1c0-.138-.112-.25-.25-.25z"/><path d="m23.25 21.25h-1.5c-.965 0-1.75-.785-1.75-1.75v-1.75c0-.414.336-.75.75-.75s.75.336.75.75v1.75c0 .138.112.25.25.25h1.5c.414 0 .75.336.75.75s-.336.75-.75.75z"/><path d="m23.25 24c-.414 0-.75-.336-.75-.75v-5.5c0-.414.336-.75.75-.75s.75.336.75.75v5.5c0 .414-.336.75-.75.75z"/><path d="m13.25 15h-4.5c-.965 0-1.75-.785-1.75-1.75v-4.5c0-.965.785-1.75 1.75-1.75h2.086c.467 0 .907.182 1.237.513l2.414 2.414c.331.33.513.77.513 1.237v2.086c0 .965-.785 1.75-1.75 1.75z"/><path d="m21 10h-2v-3h2c.55 0 1-.45 1-1s-.45-1-1-1h-2.18c-.31-.85-.97-1.51-1.82-1.82v-2.18c0-.55-.45-1-1-1s-1 .45-1 1v2h-3v-2c0-.55-.45-1-1-1s-1 .45-1 1v2h-3v-2c0-.55-.45-1-1-1s-1 .45-1 1v2.18c-.85.31-1.51.97-1.82 1.82h-2.18c-.55 0-1 .45-1 1s.45 1 1 1h2v3h-2c-.55 0-1 .45-1 1s.45 1 1 1h2v3h-2c-.55 0-1 .45-1 1s.45 1 1 1h2.18c.31.85.97 1.51 1.82 1.82v2.18c0 .55.45 1 1 1s1-.45 1-1v-2h3v2c0 .55.45 1 1 1s1-.45 1-1v-2.25c0-.63.16-1.23.44-1.75h-6.44c-.55 0-1-.45-1-1v-10c0-.55.45-1 1-1h10c.55 0 1 .45 1 1v9h2v-3h2c.55 0 1-.45 1-1s-.45-1-1-1z"/></svg>