<svg xmlns="http://www.w3.org/2000/svg" width="1200" height="630" viewBox="0 0 1200 630" role="img" aria-label="KanbanApp">
  <defs>
    <linearGradient id="bg" x1="0" y1="0" x2="1" y2="1">
      <stop offset="0%" stop-color="#12131d"/>
      <stop offset="55%" stop-color="#2f2f5f"/>
      <stop offset="100%" stop-color="#7c4dff"/>
    </linearGradient>
    <linearGradient id="glass" x1="0" y1="0" x2="0" y2="1">
      <stop offset="0%" stop-color="#ffffff" stop-opacity="0.23"/>
      <stop offset="100%" stop-color="#ffffff" stop-opacity="0.08"/>
    </linearGradient>
    <filter id="softBlur" x="-20%" y="-20%" width="140%" height="140%">
      <feGaussianBlur stdDeviation="28"/>
    </filter>
  </defs>

  <rect width="1200" height="630" fill="url(#bg)"/>
  <circle cx="1020" cy="80" r="210" fill="#bda6ff" fill-opacity="0.22" filter="url(#softBlur)"/>
  <circle cx="130" cy="560" r="190" fill="#6f7cff" fill-opacity="0.22" filter="url(#softBlur)"/>

  <rect x="48" y="48" width="1104" height="534" rx="28" fill="#000000" fill-opacity="0.26" stroke="#d8d8ff" stroke-opacity="0.30"/>

  <g opacity="0.88">
    <rect x="126" y="124" width="286" height="370" rx="22" fill="url(#glass)" stroke="#ffffff" stroke-opacity="0.24"/>
    <rect x="457" y="124" width="286" height="370" rx="22" fill="url(#glass)" stroke="#ffffff" stroke-opacity="0.24"/>
    <rect x="788" y="124" width="286" height="370" rx="22" fill="url(#glass)" stroke="#ffffff" stroke-opacity="0.24"/>

    <rect x="148" y="148" width="242" height="24" rx="12" fill="#ffffff" fill-opacity="0.26"/>
    <rect x="479" y="148" width="242" height="24" rx="12" fill="#ffffff" fill-opacity="0.26"/>
    <rect x="810" y="148" width="242" height="24" rx="12" fill="#ffffff" fill-opacity="0.26"/>

    <rect x="148" y="198" width="170" height="18" rx="9" fill="#ffffff" fill-opacity="0.17"/>
    <rect x="479" y="198" width="170" height="18" rx="9" fill="#ffffff" fill-opacity="0.17"/>
    <rect x="810" y="198" width="170" height="18" rx="9" fill="#ffffff" fill-opacity="0.17"/>
  </g>

  <text x="600" y="352" text-anchor="middle" font-family="Segoe UI, Arial, sans-serif" font-size="110" font-weight="700" fill="#f8f8ff">KanbanApp</text>
</svg>
